<?xml version="1.0" encoding="UTF-8"?>
<svg id="Layer_1" xmlns="http://www.w3.org/2000/svg" version="1.1" viewBox="0 0 944.47 784.93">
  <!-- Generator: Adobe Illustrator 29.8.3, SVG Export Plug-In . SVG Version: 2.1.1 Build 3)  -->
  <defs>
    <style>
      .st0 {
        fill: #212121;
        font-family: Lato-Bold, Lato;
        font-size: 105px;
        font-weight: 700;
        letter-spacing: .04em;
        stroke: #212121;
        stroke-miterlimit: 10;
      }

      .st1 {
        fill: #f25022;
      }

      .st2 {
        fill: #80ba01;
      }

      .st3 {
        fill: #ffb902;
      }

      .st4 {
        fill: #02a4ef;
      }
    </style>
  </defs>
  <g>
    <path class="st1" d="M180.31,396.22l6.9-5.88c1.27-1.09,1.82-2.8,1.4-4.42l-7.08-27.64c-.84-3.3-4.96-4.41-7.36-2l-6.55,6.6c-1.08,1.09-1.51,2.66-1.14,4.15l6.73,26.92c.79,3.15,4.62,4.38,7.09,2.27Z"/>
    <path class="st1" d="M189.92,341.25l5.23,22.67c.93,4.01,5.9,5.44,8.81,2.53l32.97-32.97c2.05-2.05,2.05-5.37,0-7.41l-14.97-14.97c-2.11-2.11-5.55-2.04-7.56.16l-23.23,25.26c-1.17,1.27-1.64,3.04-1.25,4.73Z"/>
    <path class="st1" d="M174.22,423.9l14.11-13.5c1.43-1.37,3.82-.59,4.15,1.37l2.58,14.9c.14.79-.12,1.61-.69,2.18l-14.97,14.97c-1.47,1.47-4,.58-4.22-1.49l-1.72-16.37c-.08-.76.2-1.52.75-2.05Z"/>
    <path class="st1" d="M203.58,393.94l2.9,13.99c.49,2.36,3.44,3.19,5.09,1.42l52.39-56.46c1.09-1.17,1.05-2.99-.08-4.12l-7.71-7.71c-1.18-1.18-3.11-1.16-4.26.06l-47.59,50.18c-.67.71-.95,1.69-.75,2.65Z"/>
    <path class="st2" d="M198.31,452.87l25.39,25.06c1.17,1.16,2.89,1.59,4.47,1.11l24.58-7.34c3.35-1,4.34-5.26,1.78-7.64l-36.15-33.55c-1.87-1.73-4.8-1.58-6.48.34l-13.83,15.83c-1.57,1.8-1.47,4.51.23,6.19Z"/>
    <path class="st2" d="M230.55,414.42l6.22-6.22c1.41-1.41,3.67-1.49,5.18-.18l51.75,44.98c2.24,1.95,1.48,5.6-1.36,6.49l-13.12,4.09c-1.32.41-2.76.07-3.75-.88l-44.85-42.85c-1.54-1.47-1.57-3.92-.06-5.43Z"/>
    <path class="st2" d="M239.62,491.49l9.66,9.97c.41.43,1.02.61,1.6.48l34.82-7.9c1.29-.29,1.77-1.89.84-2.84l-10.37-10.69c-.42-.44-1.05-.61-1.64-.46l-34.1,8.62c-1.27.32-1.72,1.89-.8,2.83Z"/>
    <path class="st2" d="M297.37,480.53l14.65,14.29c.6.59,1.47.83,2.29.64l14.97-3.52c1.83-.43,2.52-2.66,1.27-4.05l-14.46-16.04c-.66-.74-1.71-1-2.64-.68l-15.15,5.27c-.99.34-1.66,1.28-1.66,2.33h0c0,.66.27,1.3.74,1.77Z"/>
    <path class="st4" d="M305.35,441.95l49.86-49.86c.54-.54.74-1.32.54-2.05l-4.28-15.59c-.43-1.58-2.42-2.09-3.56-.91l-54.28,56.14c-.78.81-.79,2.09-.02,2.91l8.71,9.31c.82.87,2.19.89,3.04.05Z"/>
    <path class="st4" d="M319.83,456.41c4.2,4.03,11.74,11.01,15.85,14.79,1.58,1.46,4.04,1.39,5.54-.15l25.23-25.91c.99-1.02,1.36-2.49.98-3.86l-6.69-23.56c-.83-2.93-4.51-3.87-6.65-1.71l-34.33,34.73c-1.56,1.58-1.53,4.12.07,5.66Z"/>
    <path class="st4" d="M368.48,400.07l6.69,29.38c.58,2.53,3.62,3.55,5.61,1.9l9.2-7.66c.99-.83,1.44-2.13,1.17-3.4l-6.61-30.9c-.57-2.68-3.89-3.67-5.84-1.74l-9.28,9.18c-.85.84-1.21,2.07-.94,3.24Z"/>
    <path class="st4" d="M361.9,358.91l2.58,13.3c.34,1.75,2.47,2.43,3.76,1.21l15.58-14.76c.61-.58.85-1.45.62-2.25l-3.59-12.6c-.47-1.64-2.51-2.19-3.73-1l-14.57,14.06c-.55.53-.79,1.3-.65,2.05Z"/>
    <polygon class="st3" points="258.32 326.19 319.37 380.06 333.34 366.89 277.08 317.81 258.32 326.19"/>
    <path class="st3" d="M304.17,320.65l35.3,34.58c1.66,1.63,4.34,1.54,5.89-.19l13.86-15.49c1.39-1.55,1.38-3.91-.01-5.45l-22.68-25.09c-.99-1.09-2.49-1.57-3.93-1.24l-26.48,6c-3.15.71-4.26,4.63-1.95,6.89Z"/>
    <path class="st3" d="M227.19,297.77l14.64,13.94c.34.32.81.45,1.27.34l17.77-4.23c1.06-.25,1.42-1.57.64-2.33l-16.41-15.8c-.38-.37-.95-.48-1.44-.29l-16,6.1c-.95.36-1.19,1.58-.46,2.28Z"/>
    <path class="st3" d="M287.59,302.71l27.51-4.92c2.77-.49,3.94-3.81,2.1-5.94l-5.36-6.2c-1.98-2.29-5.1-3.23-8.02-2.41l-27.47,7.73c-2.55.72-3.24,4.01-1.19,5.69l5.05,4.13c2.06,1.69,4.76,2.39,7.38,1.92Z"/>
  </g>
  <text class="st0" transform="translate(416.91 428.22)"><tspan x="0" y="0">Grevya</tspan></text>
</svg>